<svg width="77" height="87" viewBox="0 0 77 87" fill="none" xmlns="http://www.w3.org/2000/svg">
<path d="M50.5283 20.8333C50.5283 10.01 41.5283 1 30.717 1C19.9057 1 10.9057 10.01 10.9057 20.8333V27.9167M43.4528 83.875H4.53774C2.58491 83.875 1 82.2883 1 80.3333V31.4583C1 29.5033 2.58491 27.9167 4.53774 27.9167H56.1887C58.1415 27.9167 59.7264 29.5033 59.7264 31.4583V48.4583M38.5 60.5C36.1934 59.3171 33.5472 58.375 30.717 58.375C21.3915 58.375 13.7358 66.0392 13.7358 75.375H37.7925M50.7618 69.3117L57.6675 75.7929L68.4505 63.2696M39.2075 43.5C39.2075 48.1944 35.4062 52 30.717 52C26.0278 52 22.2264 48.1944 22.2264 43.5C22.2264 38.8056 26.0278 35 30.717 35C35.4062 35 39.2075 38.8056 39.2075 43.5ZM76 69.3542C76 78.5474 68.5557 86 59.3726 86C50.1896 86 42.7453 78.5474 42.7453 69.3542C42.7453 60.1609 50.1896 52.7083 59.3726 52.7083C68.5557 52.7083 76 60.1609 76 69.3542Z" stroke="#09AD9D" stroke-width="1.5" stroke-linecap="round" stroke-linejoin="round"/>
</svg>
