<svg width="69" height="87" viewBox="0 0 69 87" fill="none" xmlns="http://www.w3.org/2000/svg">
<path d="M52.0563 72.873C55.4905 69.2288 57.5972 64.3204 57.5972 58.9225C57.5972 56.6006 57.2065 54.369 56.4904 52.2883L61.4407 48.8761C63.9844 53.1095 65.4493 58.0643 65.4493 63.3601C65.4493 68.6559 63.9681 73.6733 61.3942 77.9229L49.2219 77.8116M24.7982 67.5703C17.9691 61.5507 13.6629 52.7499 13.6629 42.9424C13.6629 32.4204 20.1362 22.1906 27.8488 16.1781L24.0193 10.648C11.1168 18.6833 1 33.8098 1 50.1008C1 60.5811 4.55287 70.2309 10.5216 77.9229M20.9593 77.9229C20.9593 69.1314 28.1046 62.0031 36.917 62.0031C45.7294 62.0031 52.8747 69.1314 52.8747 77.9229M41.093 14.0695L32.3806 1.48297C32.0295 0.974963 31.3319 0.847381 30.8227 1.19765L22.7079 6.78805C22.1986 7.13832 22.0708 7.83422 22.4219 8.34222L31.1343 20.9264M41.4372 31.6665L44.8459 36.5911C45.197 37.0991 45.8945 37.2267 46.4038 36.8764L48.7522 35.2573C49.2614 34.907 49.3893 34.2111 49.0382 33.7031L45.6295 28.7785M32.3829 28.4908L36.1195 33.8864C36.4706 34.3944 37.1681 34.522 37.6774 34.1717L49.3079 26.1573C49.8171 25.807 49.945 25.1111 49.5939 24.6031L45.8573 19.2075M47.7647 54.0932L65.4526 41.9064C65.8256 41.6494 66.3369 41.7427 66.5945 42.1148L67.633 43.6151C67.8906 43.9872 67.7971 44.4972 67.4241 44.7542L49.7361 56.941C49.3631 57.198 48.8519 57.1047 48.5943 56.7325L47.5557 55.2323C47.2981 54.8602 47.3917 54.3502 47.7647 54.0932ZM39.3743 67.4837C39.9365 68.8377 39.292 70.39 37.9347 70.9509C36.5775 71.5118 35.0214 70.8688 34.4592 69.5147C33.8971 68.1607 34.5416 66.6084 35.8988 66.0475C37.2561 65.4866 38.8121 66.1296 39.3743 67.4837ZM65.5934 86H8.2406C6.9115 86 5.83404 84.9251 5.83404 83.5991V80.3215C5.83404 78.9955 6.9115 77.9206 8.2406 77.9206H65.5934C66.9226 77.9206 68 78.9955 68 80.3215V83.5991C68 84.9251 66.9226 86 65.5934 86ZM26.8451 23.8881L45.3845 11.1147C45.8462 10.7965 46.4791 10.912 46.798 11.3727L49.5913 15.4077C49.9102 15.8684 49.7944 16.4997 49.3326 16.8179L30.7933 29.5913C30.3315 29.9095 29.6987 29.7939 29.3798 29.3333L26.5864 25.2982C26.2675 24.8376 26.3833 24.2062 26.8451 23.8881Z" stroke="#09AD9D" stroke-width="1.5" stroke-linecap="round" stroke-linejoin="round"/>
</svg>
