<svg width="69" height="87" viewBox="0 0 69 87" fill="none" xmlns="http://www.w3.org/2000/svg">
<path d="M54.6335 35.8021C55.2633 37.8305 55.6028 39.987 55.6028 42.2224C55.6028 54.1462 45.9537 63.8124 34.051 63.8124C22.1483 63.8124 12.4992 54.1462 12.4992 42.2224C12.4992 30.2986 22.1483 20.6324 34.051 20.6324C39.9728 20.6324 45.3386 23.0256 49.2332 26.8999M50.205 4.24774C39.7342 -0.0825789 29.2658 -0.0825789 18.795 4.24774C17.5083 4.78009 16.5881 5.95817 16.4012 7.34082C15.513 13.9558 10.4769 19.2547 4.00151 20.5265C2.25227 20.8691 1 22.4119 1 24.1987V34.3357C1 47.9157 6.47898 60.9189 16.1896 70.3929L30.5328 84.3845C32.7397 86.5385 36.2603 86.5385 38.4672 84.3845L52.8104 70.3929C62.521 60.9189 68 47.9157 68 34.3357V24.2037C68 22.4193 66.7477 20.8691 64.9985 20.5265C58.5231 19.2572 53.487 13.9583 52.5988 7.34082C52.4143 5.95817 51.4917 4.78009 50.205 4.24774ZM56.3163 27.0059C54.3309 25.017 51.1104 25.017 49.1225 27.0059L33.9821 42.1731L28.0898 36.2704C26.1044 34.2814 22.8839 34.2814 20.896 36.2704C18.9106 38.2593 18.9106 41.4855 20.896 43.4769L29.9522 52.5491C31.0569 53.6557 32.538 54.124 33.9797 54.0008C35.4214 54.124 36.9049 53.6557 38.0071 52.5491L56.3138 34.21C58.2992 32.221 58.2992 28.9949 56.3138 27.0035L56.3163 27.0059Z" stroke="#09AD9D" stroke-width="1.5" stroke-linecap="round" stroke-linejoin="round"/>
</svg>
