<svg width="83" height="87" viewBox="0 0 83 87" fill="none" xmlns="http://www.w3.org/2000/svg">
<path d="M79.2516 59.314L71.7025 57.944L62.7792 55.2069L51.7946 60.6811L49.7362 68.8924L59.3467 71.6295L68.9571 75.0516M29.1442 31.111V29.0589C29.1442 23.8376 36.2628 20.1626 41.5 20.1626C46.7372 20.1626 53.8558 23.8376 53.8558 29.0589V31.111M46.3037 32.4781H36.6933M82 44.9435C82 67.6753 63.9263 86 41.5 86C19.0737 86 1 67.6753 1 44.9435H82ZM10.6104 44.9435L14.0429 49.7327L19.5337 51.1027L21.5921 59.314V65.4732L22.9663 69.5774L27.77 72.3145L31.2025 73.6845L30.5154 70.2624V66.8403L32.5767 64.1032L34.635 59.999L35.3221 55.2069L42.8712 53.8398L44.9325 46.9956V44.9435H10.6104ZM48.365 7.84422C48.365 11.6242 45.2914 14.6884 41.5 14.6884C37.7086 14.6884 34.635 11.6242 34.635 7.84422C34.635 4.06426 37.7086 1 41.5 1C45.2914 1 48.365 4.06426 48.365 7.84422ZM18.8467 27.0039C24.0839 27.0039 31.2025 30.6789 31.2025 35.9002V39.3223H6.49083V35.9002C6.49083 30.6789 13.6094 27.0039 18.8467 27.0039ZM18.8814 7.84344C22.6728 7.86191 25.7313 10.9411 25.7128 14.721C25.6942 18.5009 22.6057 21.5502 18.8143 21.5317C15.0229 21.5132 11.9644 18.434 11.9829 14.6541C12.0014 10.8742 15.09 7.82497 18.8814 7.84344ZM64.1504 27.0039C69.3876 27.0039 76.5062 30.6789 76.5062 35.9002V39.3223H51.7946V35.9002C51.7946 30.6789 58.9132 27.0039 64.1504 27.0039ZM64.186 7.84662C67.9773 7.86576 71.0353 10.9455 71.0161 14.7254C70.9969 18.5053 67.9078 21.554 64.1165 21.5349C60.3251 21.5158 57.2671 18.436 57.2863 14.6561C57.3055 10.8762 60.3946 7.82749 64.186 7.84662Z" stroke="#09AD9D" stroke-width="1.5" stroke-linecap="round" stroke-linejoin="round"/>
</svg>
