<svg width="214" height="56" viewBox="0 0 214 56" fill="none" xmlns="http://www.w3.org/2000/svg">
<path d="M41.2528 28.4297L34.7728 15.3025L22.0258 34.7652L15.5687 21.8737L0 45.6488V50.2882L0.319445 50.5012L6.80702 40.5987V50.9727C6.80702 53.7411 9.06587 56 11.8343 56C14.6027 56 16.8616 53.7411 16.8616 50.9727V30.9852L21.6836 40.6215L25.9959 34.035V50.9651C25.9959 53.7335 28.2548 55.9924 31.0232 55.9924C33.7917 55.9924 36.0505 53.7335 36.0505 50.9651V24.5052L40.8877 34.3088L45.1773 27.7528V50.9651C45.1773 53.7335 47.4361 55.9924 50.2046 55.9924C52.973 55.9924 55.2318 53.7335 55.2318 50.9651V12.3971L59.8561 5.33152V0L41.2375 28.4297H41.2528ZM11.8343 53.0718C10.6783 53.0718 9.72757 52.1288 9.72757 50.9651V36.1266L13.9335 29.6999V50.9651C13.9335 52.1211 12.9904 53.0718 11.8267 53.0718H11.8343ZM31.0232 53.0718C29.8672 53.0718 28.9165 52.1288 28.9165 50.9651V29.5706L33.1224 23.1438V50.9651C33.1224 52.1211 32.1793 53.0718 31.0156 53.0718H31.0232ZM52.3113 50.9651C52.3113 52.1211 51.3682 53.0718 50.2046 53.0718C49.0409 53.0718 48.0978 52.1288 48.0978 50.9651V23.2883L52.3037 16.8616V50.9651H52.3113Z" fill="url(#paint0_linear_73_734)"/>
<path d="M213.877 41.7166L204.119 33.4189C204.119 33.4189 204.111 33.3961 204.119 33.3885L212.751 26.0187C212.751 26.0187 212.751 25.9883 212.736 25.9883H208.188C208.188 25.9883 208.18 25.9883 208.173 25.9883L199.829 33.4113C199.829 33.4113 199.799 33.4113 199.799 33.3961V25.9959C199.799 25.9959 199.791 25.9807 199.784 25.9807H196.582C196.582 25.9807 196.566 25.9883 196.566 25.9959V41.7242C196.566 41.7242 196.574 41.7394 196.582 41.7394H199.784C199.784 41.7394 199.799 41.7318 199.799 41.7242V33.5178C199.799 33.5178 199.814 33.495 199.829 33.5026L209.222 41.7318C209.222 41.7318 209.23 41.7318 209.237 41.7318H213.854C213.854 41.7318 213.877 41.709 213.869 41.7014L213.877 41.7166Z" fill="#1D1D1B"/>
<path d="M191.866 25.9883H188.657C188.648 25.9883 188.642 25.9951 188.642 26.0035V41.7395C188.642 41.7479 188.648 41.7547 188.657 41.7547H191.866C191.875 41.7547 191.882 41.7479 191.882 41.7395V26.0035C191.882 25.9951 191.875 25.9883 191.866 25.9883Z" fill="#1D1D1B"/>
<path d="M180.693 32.4911H169.156C169.156 32.4911 169.141 32.4835 169.141 32.4759V26.0111C169.141 26.0111 169.133 25.9959 169.125 25.9959H165.923C165.923 25.9959 165.908 26.0035 165.908 26.0111V41.7395C165.908 41.7395 165.916 41.7547 165.923 41.7547H169.125C169.125 41.7547 169.141 41.7471 169.141 41.7395V35.2215C169.141 35.2215 169.148 35.2063 169.156 35.2063H180.693C180.693 35.2063 180.709 35.2139 180.709 35.2215V41.7395C180.709 41.7395 180.716 41.7547 180.724 41.7547H183.926C183.926 41.7547 183.941 41.7471 183.941 41.7395V26.0111C183.941 26.0111 183.933 25.9959 183.926 25.9959H180.724C180.724 25.9959 180.709 26.0035 180.709 26.0111V32.4759C180.709 32.4759 180.701 32.4911 180.693 32.4911Z" fill="#1D1D1B"/>
<path d="M160.85 34.0731C160.318 33.7156 159.664 33.4342 158.903 33.2213C158.158 32.9931 157.321 32.8182 156.393 32.6889C155.405 32.5444 154.576 32.3998 153.906 32.2477C153.237 32.1032 152.712 31.9435 152.324 31.7838C151.937 31.6241 151.655 31.4339 151.495 31.221C151.336 30.9928 151.252 30.7342 151.252 30.4376C151.252 29.6923 151.587 29.1599 152.248 28.8556C152.933 28.5438 153.792 28.3917 154.834 28.3917C155.952 28.3917 156.88 28.6047 157.61 29.023C158.356 29.4413 158.759 30.1258 158.827 31.0765C158.827 31.0841 158.835 31.0917 158.842 31.0917H161.976C161.976 31.0917 161.999 31.0841 161.999 31.0689C162.029 29.388 161.428 28.0723 160.196 27.114C158.979 26.1404 157.23 25.6537 154.956 25.6537C153.442 25.6537 152.172 25.8514 151.13 26.2393C150.088 26.6272 149.305 27.1748 148.765 27.8745C148.248 28.5742 147.982 29.388 147.982 30.3083C147.982 31.0537 148.149 31.7077 148.491 32.2553C148.849 32.7877 149.328 33.2441 149.929 33.6167C150.545 33.9894 151.252 34.3012 152.051 34.5446C152.849 34.7728 153.693 34.9477 154.583 35.077C155.717 35.2367 156.637 35.4041 157.336 35.5638C158.036 35.7083 158.546 35.906 158.873 36.1494C159.2 36.3776 159.36 36.7122 159.36 37.1457C159.36 37.5793 159.23 37.99 158.972 38.317C158.713 38.644 158.318 38.895 157.778 39.07C157.245 39.2449 156.561 39.3362 155.732 39.3362C154.819 39.3362 154.005 39.2145 153.268 38.9711C152.537 38.7125 151.944 38.3626 151.488 37.9215C151.054 37.4728 150.803 36.9708 150.735 36.4232C150.735 36.4156 150.727 36.408 150.72 36.408H147.464C147.464 36.408 147.449 36.4156 147.442 36.4232C147.411 36.8263 147.48 37.275 147.639 37.7694C147.814 38.2714 148.111 38.7733 148.514 39.2829C148.917 39.7849 149.45 40.2488 150.096 40.6747C150.742 41.1006 151.518 41.4353 152.408 41.7015C153.298 41.9449 154.332 42.0666 155.504 42.0666C157.146 42.0666 158.477 41.8688 159.496 41.4809C160.538 41.093 161.299 40.5454 161.786 39.8457C162.288 39.1308 162.539 38.2942 162.539 37.3359C162.539 36.5525 162.394 35.8984 162.098 35.366C161.801 34.8336 161.383 34.3925 160.827 34.0503L160.85 34.0731Z" fill="#1D1D1B"/>
<path d="M140.263 26.6652C138.787 25.9959 136.992 25.6689 134.878 25.6689C132.764 25.6689 130.991 26.0035 129.493 26.6652C128.018 27.3117 126.877 28.2472 126.086 29.4641C125.302 30.681 124.915 32.1488 124.915 33.8753C124.915 35.6018 125.302 37.0392 126.086 38.2637C126.884 39.4806 128.018 40.4237 129.493 41.093C130.984 41.7395 132.779 42.0665 134.878 42.0665C136.977 42.0665 138.787 41.7395 140.263 41.093C141.738 40.4237 142.871 39.4882 143.647 38.2637C144.446 37.0469 144.841 35.5866 144.841 33.8753C144.841 32.1641 144.446 30.681 143.647 29.4641C142.864 28.2472 141.738 27.3117 140.263 26.6652ZM140.605 36.8947C140.05 37.6933 139.282 38.2866 138.293 38.6745C137.319 39.0623 136.178 39.2601 134.885 39.2601C133.593 39.2601 132.459 39.0623 131.448 38.6745C130.444 38.2866 129.653 37.6933 129.082 36.8947C128.512 36.0962 128.231 35.0922 128.231 33.8753C128.231 32.6584 128.512 31.6469 129.082 30.8559C129.653 30.0573 130.436 29.4641 131.448 29.0762C132.452 28.6731 133.6 28.4677 134.885 28.4677C136.171 28.4677 137.319 28.6731 138.293 29.0762C139.282 29.4641 140.057 30.0573 140.605 30.8559C141.175 31.6545 141.457 32.6584 141.457 33.8753C141.457 35.0922 141.175 36.1038 140.605 36.8947Z" fill="#1D1D1B"/>
<path d="M117.978 37.4955L106.296 25.9883C106.296 25.9883 106.288 25.9883 106.281 25.9883H103.064C103.064 25.9883 103.048 25.9959 103.048 26.0035V41.7319C103.048 41.7319 103.056 41.7471 103.064 41.7471H106.266C106.266 41.7471 106.281 41.7395 106.281 41.7319V30.3463C106.281 30.3463 106.304 30.3235 106.311 30.3311L117.993 41.7471C117.993 41.7471 118.001 41.7471 118.009 41.7471H121.226C121.226 41.7471 121.241 41.7395 121.241 41.7319V26.0035C121.241 26.0035 121.233 25.9883 121.226 25.9883H118.024C118.024 25.9883 118.009 25.9959 118.009 26.0035V37.4803C118.009 37.4803 117.986 37.5032 117.978 37.4955Z" fill="#1D1D1B"/>
<path d="M89.2745 25.9959L81.8818 41.7243C81.8818 41.7243 81.8818 41.7547 81.897 41.7547H85.3652C85.3652 41.7547 85.3804 41.7547 85.3804 41.7471L86.9243 38.3322C86.9243 38.3322 86.9319 38.3246 86.9396 38.3246H95.146C95.146 38.3246 95.1612 38.3246 95.1612 38.3322L96.7204 41.7471C96.7204 41.7471 96.728 41.7547 96.7356 41.7547H100.227C100.227 41.7547 100.249 41.7395 100.242 41.7243L92.7807 25.9959C92.7807 25.9959 92.773 25.9883 92.7654 25.9883H89.2821C89.2821 25.9883 89.2669 25.9883 89.2669 25.9959H89.2745ZM88.1717 35.5865L91.0162 29.3043C91.0162 29.3043 91.0466 29.2891 91.0466 29.3043L93.9139 35.5865C93.9139 35.5865 93.9139 35.6094 93.8987 35.6094H88.1869C88.1869 35.6094 88.1641 35.5942 88.1717 35.5865Z" fill="#1D1D1B"/>
<path d="M76.1776 35.5865C76.1776 36.271 76.0483 36.8871 75.7897 37.4347C75.5311 37.9671 75.1204 38.4006 74.5728 38.7277C74.0176 39.0395 73.295 39.1916 72.4052 39.1916C71.3632 39.1916 70.4734 38.9558 69.728 38.4843C68.9979 37.9975 68.5491 37.2978 68.3666 36.3775C68.3666 36.3699 68.359 36.3623 68.3514 36.3623H65.3168C65.3168 36.3623 65.2939 36.3699 65.2939 36.3851C65.332 37.3358 65.5449 38.1648 65.948 38.8722C66.3511 39.5719 66.8911 40.1575 67.5528 40.6291C68.2221 41.0854 68.9674 41.4276 69.7965 41.6558C70.6407 41.884 71.5077 41.9981 72.4052 41.9981C73.5612 41.9981 74.5652 41.8383 75.4246 41.5113C76.2992 41.1843 77.0294 40.7431 77.615 40.1727C78.2159 39.5871 78.6646 38.9254 78.9536 38.1724C79.2654 37.4271 79.4175 36.6361 79.4175 35.8071V26.0035C79.4175 26.0035 79.4099 25.9883 79.4023 25.9883H76.2004C76.2004 25.9883 76.1852 25.9959 76.1852 26.0035V35.5865H76.1776Z" fill="#1D1D1B"/>
<defs>
<linearGradient id="paint0_linear_73_734" x1="22.8244" y1="56.2814" x2="60.0918" y2="-5.04855e-06" gradientUnits="userSpaceOnUse">
<stop stop-color="#09AD9D"/>
<stop offset="1" stop-color="#005758"/>
</linearGradient>
</defs>
</svg>
