<svg width="158" height="28" viewBox="0 0 158 28" fill="none" xmlns="http://www.w3.org/2000/svg">
<path d="M98.9045 13.3793C98.3782 13.6948 97.6857 13.5227 97.381 12.9491C97.0763 12.4042 97.2425 11.6872 97.7965 11.3717C98.3228 11.0562 99.0153 11.2283 99.32 11.8019C99.6247 12.3468 99.4585 13.0639 98.9045 13.3793Z" fill="#1D1D1B"/>
<path d="M99.4589 16.7067C99.1265 16.9074 98.6833 16.7927 98.4895 16.4485C98.2956 16.1044 98.4064 15.6455 98.7387 15.4447C99.0711 15.244 99.5143 15.3587 99.7082 15.7029C99.9021 16.047 99.7913 16.5059 99.4589 16.7067Z" fill="#1D1D1B"/>
<path d="M91.0658 21.4966C90.8165 21.64 90.5119 21.554 90.3734 21.2958C90.2349 21.0377 90.318 20.7222 90.5673 20.5788C90.8165 20.4354 91.1212 20.5215 91.2597 20.7796C91.3982 21.0377 91.3151 21.3532 91.0658 21.4966Z" fill="#1D1D1B"/>
<path d="M94.9992 22.0418C94.7499 22.1852 94.4452 22.0991 94.3067 21.841C94.1682 21.5829 94.2513 21.2674 94.5006 21.124C94.7499 20.9806 95.0546 21.0667 95.1931 21.3248C95.3316 21.5829 95.2485 21.8984 94.9992 22.0418Z" fill="#1D1D1B"/>
<path d="M98.0458 20.3213C97.7965 20.4647 97.4918 20.3787 97.3533 20.1206C97.2148 19.8624 97.2979 19.547 97.5472 19.4036C97.7965 19.2602 98.1012 19.3462 98.2397 19.6043C98.3782 19.8624 98.2951 20.1779 98.0458 20.3213Z" fill="#1D1D1B"/>
<path d="M88.4897 19.2587C88.0742 19.5169 87.5479 19.3448 87.3263 18.9433C87.077 18.5131 87.2432 17.9681 87.631 17.7387C88.0465 17.4806 88.5728 17.6527 88.7944 18.0542C89.0437 18.4844 88.8775 19.0293 88.4897 19.2587Z" fill="#1D1D1B"/>
<path d="M87.9081 15.8754C87.3264 16.2195 86.5785 16.0188 86.2461 15.4165C85.9137 14.8142 86.1076 14.0398 86.6893 13.6957C87.271 13.3515 88.0188 13.5523 88.3512 14.1546C88.6836 14.7568 88.4897 15.5312 87.9081 15.8754Z" fill="#1D1D1B"/>
<path d="M89.5422 12.6343C88.8497 13.0645 87.9356 12.8064 87.5478 12.0894C87.1323 11.3724 87.3816 10.426 88.0741 10.0245C88.7666 9.59425 89.6807 9.85238 90.0685 10.5694C90.4839 11.2864 90.2347 12.2328 89.5422 12.6343Z" fill="#1D1D1B"/>
<path d="M92.7552 10.8275C92.0073 11.2864 91.0379 10.9996 90.6224 10.2252C90.1792 9.45087 90.4562 8.44706 91.2041 8.01686C91.952 7.55798 92.9214 7.84478 93.3369 8.61914C93.7801 9.39351 93.5031 10.3973 92.7552 10.8275Z" fill="#1D1D1B"/>
<path d="M96.3286 11.0863C95.6638 11.4879 94.8051 11.2584 94.4173 10.5414C94.0296 9.8531 94.2511 8.96401 94.9436 8.56249C95.6084 8.16097 96.4671 8.39041 96.8549 9.10741C97.2427 9.79574 97.0211 10.6848 96.3286 11.0863Z" fill="#1D1D1B"/>
<path d="M104.001 10.6841C102.977 11.2864 101.647 10.9422 101.065 9.88105C100.484 8.81989 100.816 7.44324 101.841 6.84096C102.866 6.23868 104.195 6.58284 104.777 7.64401C105.359 8.70517 105.026 10.0818 104.001 10.6841Z" fill="#1D1D1B"/>
<path d="M105.054 17.0797C104.417 17.4525 103.586 17.2231 103.226 16.5634C102.866 15.9038 103.087 15.0434 103.724 14.6705C104.361 14.2977 105.192 14.5271 105.552 15.1868C105.913 15.8464 105.691 16.7068 105.054 17.0797Z" fill="#1D1D1B"/>
<path d="M88.9328 26.2853C88.462 26.5721 87.8526 26.4 87.5756 25.9124C87.2986 25.4249 87.4648 24.7939 87.9357 24.5071C88.4066 24.2203 89.0159 24.3924 89.2929 24.8799C89.5699 25.3675 89.4037 25.9985 88.9328 26.2853Z" fill="#1D1D1B"/>
<path d="M96.4949 27.2892C96.024 27.576 95.4146 27.4039 95.1376 26.9163C94.8606 26.4288 95.0268 25.7978 95.4977 25.511C95.9686 25.2242 96.5779 25.3963 96.8549 25.8838C97.1319 26.3714 96.9657 27.0024 96.4949 27.2892Z" fill="#1D1D1B"/>
<path d="M102.312 23.9913C101.841 24.2781 101.231 24.106 100.954 23.6185C100.677 23.1309 100.844 22.4999 101.315 22.2131C101.785 21.9263 102.395 22.0984 102.672 22.586C102.949 23.0735 102.783 23.7045 102.312 23.9913Z" fill="#1D1D1B"/>
<path d="M84.0578 21.9839C83.2822 22.4428 82.2851 22.1847 81.8142 21.353C81.371 20.5499 81.6203 19.5175 82.4236 19.0299C83.1991 18.571 84.1963 18.8291 84.6672 19.6609C85.1104 20.4639 84.8611 21.4964 84.0578 21.9839Z" fill="#1D1D1B"/>
<path d="M82.9221 15.4729C81.8141 16.1326 80.4015 15.7311 79.7644 14.5838C79.1273 13.4366 79.5151 11.974 80.6231 11.3143C81.731 10.6547 83.1437 11.0562 83.7808 12.2034C84.4179 13.3506 84.0301 14.8133 82.9221 15.4729Z" fill="#1D1D1B"/>
<path d="M86.0245 9.27915C84.6949 10.0822 82.9775 9.59463 82.2019 8.21799C81.4264 6.84134 81.8973 5.06318 83.2268 4.26013C84.5564 3.45709 86.2738 3.94465 87.0493 5.3213C87.8249 6.69794 87.354 8.47611 86.0245 9.27915Z" fill="#1D1D1B"/>
<path d="M92.2293 5.80835C90.7889 6.66876 88.9608 6.15251 88.1298 4.66115C87.2988 3.16978 87.7974 1.27689 89.2378 0.416491C90.6781 -0.443913 92.5063 0.0723295 93.3373 1.5637C94.1682 3.05506 93.6697 4.94795 92.2293 5.80835Z" fill="#1D1D1B"/>
<path d="M99.0428 6.29578C97.741 7.07015 96.1067 6.61127 95.3588 5.2633C94.611 3.91533 95.0541 2.22321 96.356 1.44884C97.6579 0.67448 99.2921 1.13336 100.04 2.48133C100.788 3.82929 100.345 5.52142 99.0428 6.29578Z" fill="#1D1D1B"/>
<path d="M92.5063 16.0758C93.5006 16.0758 94.3067 15.2412 94.3067 14.2116C94.3067 13.182 93.5006 12.3474 92.5063 12.3474C91.5119 12.3474 90.7058 13.182 90.7058 14.2116C90.7058 15.2412 91.5119 16.0758 92.5063 16.0758Z" fill="#1D1D1B"/>
<path d="M0.959473 12.0591H3.23082L5.72377 16.2177L8.21671 12.0591H10.4881V21.925H8.4106V15.5007L5.72377 19.7167H5.66837L3.00923 15.5581V21.9537H0.959473V12.0878V12.0591Z" fill="#1D1D1B"/>
<path d="M18.7426 12.0027H20.6816L24.7534 21.926H22.5651L21.7064 19.7176H17.69L16.8313 21.926H14.6985L18.7703 12.0027H18.7426ZM20.9585 17.7961L19.6844 14.6126L18.4102 17.7961H20.9308H20.9585Z" fill="#1D1D1B"/>
<path d="M28.964 12.0591H33.3128C34.5316 12.0591 35.4733 12.4032 36.0827 13.0629C36.609 13.6078 36.886 14.3822 36.886 15.3286C36.886 16.9347 36.055 17.9385 34.8362 18.3974L37.163 21.925H34.7254L32.6757 18.7702H31.0414V21.925H28.9363V12.0591H28.964ZM33.1743 16.8487C34.1992 16.8487 34.7808 16.2751 34.7808 15.4433C34.7808 14.4969 34.1438 14.0093 33.1466 14.0093H31.0691V16.8487H33.202H33.1743Z" fill="#1D1D1B"/>
<path d="M41.5115 12.0591H43.6166V16.3611L47.4668 12.0591H49.9875L46.1095 16.2464L50.1537 21.925H47.633L44.6692 17.7377L43.5612 18.9136V21.925H41.4561V12.0591H41.5115Z" fill="#1D1D1B"/>
<path d="M54.1699 12.0599H61.3441V13.9815H56.2474V15.9891H60.7347V17.9107H56.2474V19.9756H61.4272V21.8972H54.1699V12.0312V12.0599Z" fill="#1D1D1B"/>
<path d="M68.2136 14.0667H65.3052V12.0591H73.1995V14.0667H70.2911V21.925H68.1859V14.0667H68.2136Z" fill="#1D1D1B"/>
<path d="M115.496 12.2898C116.549 12.2898 117.518 12.5766 118.349 13.1502L117.823 13.9533C116.992 13.437 116.216 13.1789 115.496 13.1789C114.305 13.1789 113.779 13.8672 113.779 14.5842C113.779 15.7314 114.804 16.0182 116.216 16.3911C118.155 16.9073 118.848 17.567 118.848 18.8576C118.848 20.435 117.74 21.3814 115.856 21.3814C114.638 21.3814 113.474 20.9799 112.532 20.2629L113.142 19.5172C114.056 20.2055 114.942 20.521 115.912 20.521C117.297 20.521 117.795 19.7466 117.795 19.0296C117.795 17.9685 116.854 17.6243 115.496 17.2801C113.53 16.7639 112.726 16.305 112.726 14.7563C112.726 13.2936 113.862 12.3185 115.552 12.3185M115.552 11.8022C113.613 11.8022 112.228 12.9781 112.228 14.785C112.228 16.7639 113.474 17.3088 115.385 17.8251C116.964 18.2553 117.297 18.5421 117.297 19.087C117.297 19.6893 116.77 20.0334 115.912 20.0334C114.831 20.0334 113.917 19.5746 113.059 18.8289L111.812 20.3776C112.948 21.4388 114.416 21.955 115.856 21.955C117.906 21.955 119.346 20.8652 119.346 18.8862C119.346 17.1367 118.266 16.4197 116.327 15.9035C114.693 15.4733 114.277 15.2439 114.277 14.6129C114.277 14.0967 114.693 13.7238 115.496 13.7238C116.3 13.7238 117.131 14.0967 117.962 14.6989L119.042 13.0642C118.072 12.2611 116.881 11.8022 115.496 11.8022H115.552Z" fill="#1D1D1B"/>
<path d="M128.515 12.2609C131.091 12.2609 133.058 14.2111 133.058 16.821C133.058 19.4309 131.091 21.4098 128.488 21.4098C125.884 21.4098 123.945 19.4596 123.945 16.821C123.945 14.1824 125.912 12.2609 128.515 12.2609ZM128.515 20.4634C130.427 20.4634 131.867 18.9147 131.867 16.8497C131.867 14.7847 130.371 13.236 128.488 13.236C126.604 13.236 125.136 14.7847 125.136 16.8497C125.136 18.9147 126.632 20.4634 128.515 20.4634ZM128.515 11.7446C125.579 11.7446 123.446 14.039 123.446 16.8497C123.446 19.689 125.551 21.9548 128.488 21.9548C131.424 21.9548 133.557 19.6603 133.557 16.8497C133.557 14.0104 131.451 11.7446 128.515 11.7446ZM128.515 19.9471C126.826 19.9471 125.635 18.5418 125.635 16.8497C125.635 15.1289 126.798 13.7522 128.488 13.7522C130.177 13.7522 131.368 15.1576 131.368 16.8497C131.368 18.5705 130.205 19.9471 128.515 19.9471Z" fill="#1D1D1B"/>
<path d="M145.8 12.433V17.4807C145.8 20.0619 144.525 21.4099 142.143 21.4099C139.761 21.4099 138.515 20.0619 138.515 17.5667V12.4617H139.595V17.5094C139.595 19.3736 140.564 20.4634 142.143 20.4634C143.722 20.4634 144.692 19.3736 144.692 17.5667V12.433H145.772M146.271 11.9167H144.165V17.5667C144.165 19.1155 143.39 19.9185 142.116 19.9185C140.841 19.9185 140.066 19.0868 140.066 17.4807V11.9167H137.961V17.5381C137.961 20.4347 139.512 21.9261 142.088 21.9261C144.664 21.9261 146.271 20.4634 146.271 17.4807V11.9167Z" fill="#1D1D1B"/>
<path d="M152.752 12.433V20.32H157.489V21.2378H151.644V12.433H152.724M153.223 11.9167H151.118V21.7827H157.959V19.8038H153.223V11.9167Z" fill="#1D1D1B"/>
</svg>
